Coordinates
version=1
nRows=12
nColumns=63
inDegrees=yes

Units are S.I. units (second, meters, Newtons, ...)
If the header above contains a line with 'inDegrees', this indicates whether rotational values are in degrees (yes) or radians (no).

endheader
time	pelvis_tilt	pelvis_list	pelvis_rotation	pelvis_tx	pelvis_ty	pelvis_tz	hip_flexion_r	hip_adduction_r	hip_rotation_r	knee_angle_r	knee_angle_r_beta	ankle_angle_r	subtalar_angle_r	mtp_angle_r	hip_flexion_l	hip_adduction_l	hip_rotation_l	knee_angle_l	knee_angle_l_beta	ankle_angle_l	subtalar_angle_l	mtp_angle_l	L5_S1_Flex_Ext	L5_S1_Lat_Bending	L5_S1_axial_rotation	L4_L5_Flex_Ext	L4_L5_Lat_Bending	L4_L5_axial_rotation	L3_L4_Flex_Ext	L3_L4_Lat_Bending	L3_L4_axial_rotation	L2_L3_Flex_Ext	L2_L3_Lat_Bending	L2_L3_axial_rotation	L1_L2_Flex_Ext	L1_L2_Lat_Bending	L1_L2_axial_rotation	L1_T12_Flex_Ext	L1_T12_Lat_Bending	L1_T12_axial_rotation	Abs_r3	Abs_r2	Abs_r1	Abs_t1	Abs_t2	neck_flexion	neck_bending	neck_rotation	arm_flex_r	arm_add_r	arm_rot_r	elbow_flex_r	pro_sup_r	wrist_flex_r	wrist_dev_r	arm_flex_l	arm_add_l	arm_rot_l	elbow_flex_l	pro_sup_l	wrist_flex_l	wrist_dev_l
3.703704	0.148570	-6.756381	111.789864	0.253552	0.419798	0.835286	0.304576	0.732303	-10.470317	4.472161	0.078054	24.756425	-11.351836	0.000000	6.438885	1.621994	14.439958	8.859064	0.154620	30.671751	8.468933	0.000000	-0.193575	-0.727812	-0.725385	-0.359488	-0.967990	-0.770721	-0.318024	-1.769601	-0.770721	-0.221237	-1.769601	-0.634712	-0.179754	-1.484154	-0.589375	-0.110609	-1.127380	-0.544038	-1.382686	-8.233152	-4.034371	0.000000	0.000000	11.851877	4.839777	-4.637947	48.009764	0.651781	30.294686	145.982690	71.891219	-16.793608	18.525477	12.185278	-13.175144	145.793354	0.787765	2.051264	-8.073635	-16.011351
3.722222	0.369342	-6.743167	111.783916	0.253197	0.420162	0.835255	0.404233	0.902369	-10.699509	4.512223	0.078753	24.591227	-11.137875	0.000000	6.641982	1.467348	14.559010	9.189421	0.160386	30.740157	8.220687	0.000000	-0.193077	-0.707212	-0.689144	-0.358564	-0.940592	-0.732215	-0.317207	-1.719515	-0.732215	-0.220668	-1.719515	-0.603001	-0.179291	-1.442147	-0.559929	-0.110324	-1.095471	-0.516858	-1.379131	-8.000124	-3.832811	0.000000	0.000000	11.847891	4.847366	-5.053691	47.718973	0.234533	29.942173	146.023911	72.756347	-16.800804	19.001055	12.769513	-12.919086	145.750701	0.727621	2.000875	-6.855765	-15.673051
3.740741	0.596879	-6.737048	111.781527	0.252734	0.420603	0.835356	0.540247	1.060774	-10.940965	4.594729	0.080193	24.397810	-10.937617	0.000000	6.873558	1.311667	14.551892	9.555036	0.166767	30.782182	8.090704	0.000000	-0.191385	-0.682360	-0.643944	-0.355422	-0.907539	-0.684191	-0.314427	-1.659091	-0.684191	-0.218734	-1.659091	-0.563451	-0.177720	-1.391469	-0.523205	-0.109358	-1.056976	-0.482958	-1.367047	-7.718996	-3.581426	0.000000	0.000000	11.780146	4.803597	-5.478085	47.407115	-0.244216	29.516576	146.065946	73.983111	-16.547179	19.416853	13.399674	-12.603830	145.593571	0.673327	1.933720	-5.858962	-15.510325
3.759259	0.835638	-6.734368	111.756755	0.252173	0.421100	0.835567	0.711154	1.213333	-11.175732	4.715184	0.082295	24.177767	-10.737967	0.000000	7.112479	1.146282	14.407164	9.918332	0.173108	30.785451	8.061288	0.000000	-0.188028	-0.652469	-0.583473	-0.349187	-0.867784	-0.619940	-0.308911	-1.586413	-0.619940	-0.214897	-1.586413	-0.510539	-0.174603	-1.330515	-0.474072	-0.107439	-1.010675	-0.437605	-1.343064	-7.380860	-3.245102	0.000000	0.000000	11.686090	4.699796	-5.931498	47.052457	-0.798676	28.929942	146.108649	75.526273	-15.886772	19.838277	14.077962	-12.220423	145.286815	0.625135	1.840319	-5.072186	-15.510913
3.777778	1.091389	-6.724494	111.734656	0.251429	0.421623	0.835867	0.898460	1.370565	-11.366712	4.867261	0.084950	23.931380	-10.600041	0.000000	7.335540	0.962253	14.130535	10.252715	0.178944	30.762665	8.162196	0.000000	-0.182174	-0.614937	-0.520372	-0.338315	-0.817866	-0.552895	-0.299294	-1.495158	-0.552895	-0.208207	-1.495158	-0.455325	-0.169167	-1.253980	-0.422802	-0.104094	-0.952537	-0.390279	-1.301251	-6.956291	-2.894153	0.000000	0.000000	11.539602	4.516931	-6.286255	46.658505	-1.444624	28.280632	146.090160	77.294257	-15.119502	20.123088	14.754350	-11.752693	144.527611	0.595128	1.735720	-4.597508	-15.656017
3.796296	1.353440	-6.709699	111.729641	0.250534	0.422137	0.836231	1.100504	1.526789	-11.526851	5.050525	0.088148	23.690847	-10.527329	0.000000	7.551477	0.769006	13.742985	10.576201	0.184590	30.725955	8.394806	0.000000	-0.173556	-0.572184	-0.457520	-0.322311	-0.761005	-0.486115	-0.285135	-1.391208	-0.486115	-0.198357	-1.391208	-0.400330	-0.161164	-1.166798	-0.371735	-0.099170	-0.886313	-0.343140	-1.239694	-6.472660	-2.544589	0.000000	0.000000	11.379469	4.266710	-6.527979	46.199876	-2.144772	27.478651	146.014808	79.262467	-14.116662	20.417693	15.425284	-11.227181	143.518945	0.581272	1.610241	-4.572442	-15.947619
3.814815	1.608588	-6.682046	111.725301	0.249521	0.422633	0.836603	1.294855	1.679444	-11.554434	5.251421	0.091655	23.437795	-10.632953	0.000000	7.713008	0.578621	13.403121	10.827019	0.188967	30.635594	8.554301	0.000000	-0.162700	-0.525608	-0.398721	-0.302150	-0.699059	-0.423641	-0.267300	-1.277963	-0.423641	-0.185950	-1.277963	-0.348881	-0.151083	-1.071820	-0.323961	-0.092967	-0.814167	-0.299041	-1.162150	-5.945782	-2.217566	0.000000	0.000000	11.191589	3.964218	-6.621270	45.699327	-2.900139	26.644433	145.813650	81.130160	-13.257153	20.513098	16.058176	-10.665671	141.965106	0.579053	1.488910	-4.727210	-16.395271
3.833333	1.850944	-6.623053	111.730278	0.248411	0.423111	0.836954	1.452681	1.834083	-11.509941	5.461005	0.095313	23.213250	-10.840887	0.000000	7.794870	0.379902	13.037463	10.989474	0.191802	30.519750	8.793098	0.000000	-0.152029	-0.475814	-0.346734	-0.282333	-0.632833	-0.368405	-0.249768	-1.156895	-0.368405	-0.173754	-1.156895	-0.303392	-0.141174	-0.970280	-0.281721	-0.086869	-0.737036	-0.260050	-1.085927	-5.382505	-1.928430	0.000000	0.000000	10.979572	3.662606	-6.530451	45.189913	-3.713353	25.809685	145.462743	82.973821	-12.650892	20.396924	16.654508	-10.087512	140.073860	0.576378	1.368789	-5.192714	-16.995130
3.851852	2.048447	-6.537733	111.714510	0.247293	0.423585	0.837255	1.568993	1.959121	-11.402990	5.685933	0.099238	23.040522	-11.092770	0.000000	7.784366	0.204799	12.669907	11.053967	0.192928	30.376466	9.048082	0.000000	-0.142207	-0.428094	-0.290462	-0.264093	-0.569365	-0.308615	-0.233632	-1.040869	-0.308615	-0.162528	-1.040869	-0.254154	-0.132054	-0.872970	-0.236000	-0.081257	-0.663118	-0.217846	-1.015771	-4.842689	-1.615460	0.000000	0.000000	10.729404	3.319510	-6.382266	44.644153	-4.566379	24.881637	144.972882	84.714592	-12.116541	20.086552	17.252903	-9.521370	138.166140	0.563015	1.236956	-5.910453	-17.699754
3.870370	2.214952	-6.402990	111.670195	0.246174	0.424114	0.837522	1.616137	2.078781	-11.256459	5.910008	0.103149	22.897260	-11.357780	0.000000	7.659439	0.034084	12.348777	11.007462	0.192116	30.212987	9.271432	0.000000	-0.135759	-0.380165	-0.218972	-0.252119	-0.505619	-0.232657	-0.223039	-0.924333	-0.232657	-0.155159	-0.924333	-0.191600	-0.126066	-0.775232	-0.177914	-0.077573	-0.588875	-0.164229	-0.969715	-4.300502	-1.217854	0.000000	0.000000	10.440645	2.949679	-6.251194	44.035166	-5.503851	23.800652	144.387495	86.476672	-11.653503	19.558579	17.872234	-8.918105	136.666010	0.540018	1.114613	-7.609601	-18.497292
3.888889	2.327325	-6.223226	111.587773	0.245113	0.424717	0.837755	1.592017	2.168733	-11.131007	6.140725	0.107176	22.811411	-11.555260	0.000000	7.425377	-0.111520	12.006607	10.859800	0.189539	30.049331	9.539628	0.000000	-0.133121	-0.334915	-0.122575	-0.247219	-0.445437	-0.130236	-0.218704	-0.814312	-0.130236	-0.152144	-0.814312	-0.107253	-0.123616	-0.682958	-0.099592	-0.076065	-0.518783	-0.091931	-0.950868	-3.788623	-0.681725	0.000000	0.000000	10.102184	2.521109	-6.205434	43.323248	-6.499012	22.449483	143.758498	88.340320	-11.163253	18.889815	18.579102	-8.307249	135.493718	0.510333	1.005701	-9.496062	-19.360939
3.907407	2.384572	-5.991638	111.460695	0.244147	0.425420	0.837949	1.486308	2.232656	-11.012631	6.370321	0.111183	22.759593	-11.705068	0.000000	7.082557	-0.232406	11.631561	10.622539	0.185398	29.903182	9.855285	0.000000	-0.135684	-0.292350	0.003099	-0.251978	-0.388825	0.003292	-0.222915	-0.710819	0.003292	-0.155073	-0.710819	0.002711	-0.125996	-0.596159	0.002518	-0.077530	-0.452849	0.002324	-0.969175	-3.307117	0.017234	0.000000	0.000000	9.711365	2.046527	-6.265395	42.480608	-7.549959	20.742163	143.104625	89.935486	-10.564650	18.074470	19.409664	-7.697180	134.543058	0.479140	0.925659	-11.162295	-20.283150
